<svg xmlns="http://www.w3.org/2000/svg" width="470" height="100" viewBox="80 590 470 100"><path fill-rule="nonzero" fill="rgb(98.039246%, 74.118042%, 64.706421%)" fill-opacity="1" d="M 528.011719 519.234375 C 525.355469 516.148438 521.226562 514.605469 515.625 514.605469 C 509.628906 514.605469 505.253906 516.464844 502.515625 520.175781 C 499.773438 523.949219 498.402344 529.492188 498.402344 536.804688 C 498.402344 539.945312 498.671875 542.859375 499.214844 545.546875 C 499.757812 548.230469 500.671875 550.574219 501.957031 552.574219 C 503.242188 554.574219 504.984375 556.144531 507.1875 557.285156 C 509.382812 558.429688 512.113281 559 515.371094 559 C 519.484375 559 524.453125 558.742188 530.28125 558.230469 L 530.113281 555.742188 L 527.539062 556 C 525.769531 556.171875 523.855469 556.289062 521.796875 556.34375 C 519.742188 556.402344 517.96875 556.429688 516.484375 556.429688 C 513.570312 556.429688 511.140625 556.101562 509.199219 555.445312 C 507.253906 554.789062 505.59375 553.816406 504.570312 552.273438 C 501.722656 547.972656 499.726562 535.289062 502.257812 527.398438 C 502.769531 525.742188 503.402344 523.699219 505.042969 521.804688 C 508.789062 517.484375 514.695312 517.519531 515.625 517.519531 C 520.199219 517.519531 523.527344 518.90625 525.613281 521.675781 C 527.695312 524.449219 528.738281 528.976562 528.738281 535.261719 L 504.300781 535.261719 L 504.386719 538.089844 L 531.824219 538.089844 L 531.996094 535.089844 C 532.109375 533.949219 531.996094 532.863281 531.996094 531.832031 C 531.996094 526.519531 530.667969 522.320312 528.011719 519.234375 M 297.359375 534.148438 C 297.585938 527.519531 296.171875 522.578125 293.117188 519.320312 C 290.058594 516.0625 285.589844 514.433594 279.703125 514.433594 C 273.304688 514.433594 268.617188 516.351562 265.648438 520.175781 C 262.675781 524.003906 261.191406 529.777344 261.191406 537.488281 C 261.191406 541.03125 261.519531 544.148438 262.175781 546.832031 C 262.835938 549.519531 263.890625 551.773438 265.347656 553.601562 C 266.804688 555.429688 268.703125 556.816406 271.046875 557.757812 C 273.390625 558.699219 276.246094 559.171875 279.617188 559.171875 C 284.300781 559.171875 289.761719 558.542969 295.988281 557.285156 L 295.816406 550.945312 L 293.246094 551.203125 C 291.300781 551.375 289.273438 551.488281 287.160156 551.542969 C 285.046875 551.601562 283.074219 551.628906 281.246094 551.628906 C 279.074219 551.628906 277.277344 551.417969 275.847656 550.988281 C 274.417969 550.558594 273.261719 549.875 272.375 548.929688 C 271.492188 547.988281 270.863281 546.777344 270.492188 545.289062 C 270.121094 543.804688 269.90625 542.003906 269.847656 539.886719 L 269.839844 539.886719 L 269.761719 533.71875 C 269.761719 529.433594 270.5625 526.335938 272.164062 524.417969 C 273.761719 522.503906 276.277344 521.546875 279.703125 521.546875 C 282.960938 521.546875 285.289062 522.476562 286.6875 524.332031 C 288.089844 526.191406 288.789062 529.320312 288.789062 533.71875 L 274.164062 533.71875 L 274.242188 539.886719 L 296.84375 539.886719 Z M 243.792969 497.292969 L 243.792969 549.230469 L 242.253906 549.746094 C 240.882812 550.257812 239.367188 550.6875 237.710938 551.03125 C 236.050781 551.375 234.566406 551.542969 233.253906 551.542969 C 230.167969 551.542969 227.96875 550.402344 226.65625 548.117188 C 225.339844 545.832031 224.683594 542.117188 224.683594 536.972656 C 224.683594 534.234375 224.867188 531.890625 225.242188 529.945312 C 225.609375 528.003906 226.210938 526.433594 227.039062 525.234375 C 227.867188 524.035156 228.96875 523.148438 230.339844 522.578125 C 231.710938 522.007812 233.394531 521.71875 235.394531 521.71875 C 236.527344 521.71875 237.871094 521.816406 239.394531 521.996094 L 239.394531 514.902344 C 239.035156 514.855469 238.609375 514.777344 238.269531 514.734375 C 236.582031 514.535156 234.996094 514.433594 233.511719 514.433594 C 227.453125 514.433594 223.011719 516.234375 220.183594 519.835938 C 217.355469 523.433594 215.941406 529.261719 215.941406 537.316406 C 215.941406 544.804688 217.15625 550.316406 219.582031 553.859375 C 222.011719 557.402344 225.996094 559.171875 231.539062 559.171875 C 233.539062 559.171875 235.496094 558.914062 237.410156 558.402344 C 239.324219 557.886719 241.453125 557.03125 243.792969 555.832031 L 243.792969 558.230469 L 252.367188 558.230469 L 252.367188 497.292969 Z M 340.179688 551.289062 C 339.550781 550.714844 339.179688 549.832031 339.066406 548.628906 L 339.066406 528.40625 C 339.066406 523.492188 337.90625 519.933594 335.59375 517.734375 C 333.28125 515.535156 329.496094 514.433594 324.238281 514.433594 C 321.722656 514.433594 319.066406 514.605469 316.269531 514.949219 C 313.46875 515.292969 310.527344 515.835938 307.441406 516.578125 L 307.785156 522.664062 C 310.527344 522.378906 313.28125 522.148438 316.054688 521.976562 C 318.824219 521.804688 321.582031 521.71875 324.324219 521.71875 C 326.378906 521.71875 327.925781 522.234375 328.953125 523.261719 C 329.980469 524.289062 330.496094 526.003906 330.496094 528.40625 L 330.496094 549.917969 L 328.78125 550.429688 C 327.125 550.945312 325.507812 551.34375 323.941406 551.628906 C 322.367188 551.917969 320.867188 552.058594 319.441406 552.058594 C 315.554688 552.058594 313.613281 549.917969 313.613281 545.628906 C 313.613281 541.460938 315.695312 539.203125 319.867188 538.859375 L 326.09375 538.257812 L 326.09375 532.050781 L 318.839844 532.691406 C 313.984375 533.148438 310.453125 534.375 308.253906 536.375 C 306.054688 538.375 304.957031 541.519531 304.957031 545.800781 C 304.957031 550.144531 306.011719 553.460938 308.125 555.742188 C 310.242188 558.03125 313.382812 559.171875 317.554688 559.171875 C 322.355469 559.171875 327.09375 558.058594 331.78125 555.832031 C 333.207031 557.03125 334.765625 557.886719 336.453125 558.402344 C 338.136719 558.914062 340.265625 559.171875 342.835938 559.171875 L 343.179688 552.488281 C 341.808594 552.257812 340.808594 551.859375 340.179688 551.289062 M 486.425781 495.667969 L 489.597656 495.667969 L 489.597656 558.230469 L 486.425781 558.230469 Z M 442.460938 515.378906 L 445.546875 515.378906 L 458.316406 555.488281 L 461.746094 555.488281 L 474.429688 515.378906 L 477.601562 515.378906 L 457.976562 577.941406 L 454.804688 577.941406 L 460.890625 558.230469 L 455.746094 558.230469 Z M 418.042969 542.203125 C 418.042969 544.257812 418.085938 546.175781 418.171875 547.945312 C 418.257812 549.714844 418.558594 551.246094 419.074219 552.53125 C 419.585938 553.816406 420.371094 554.816406 421.429688 555.53125 C 422.488281 556.246094 423.957031 556.601562 425.84375 556.601562 L 434.15625 555.832031 L 434.414062 558.316406 C 432.46875 558.601562 430.742188 558.816406 429.230469 558.957031 C 427.714844 559.097656 426.472656 559.171875 425.5 559.171875 C 423.558594 559.171875 421.902344 558.945312 420.53125 558.488281 C 419.160156 558.03125 418.074219 557.230469 417.273438 556.085938 C 416.472656 554.945312 415.886719 553.402344 415.515625 551.460938 C 415.144531 549.519531 414.957031 547.0625 414.957031 544.089844 L 414.957031 518.121094 L 408.101562 518.121094 L 408.101562 515.378906 L 414.957031 515.378906 L 414.957031 501.492188 L 418.042969 501.492188 L 418.042969 515.378906 L 433.472656 515.378906 L 433.472656 518.121094 L 418.042969 518.121094 Z M 370.003906 554.457031 C 373.945312 554.972656 377.359375 555.359375 380.242188 555.617188 C 383.128906 555.871094 385.316406 556 386.800781 556 C 392.402344 556 396.488281 554.757812 399.058594 552.273438 C 401.628906 549.789062 402.914062 546.089844 402.914062 541.175781 C 402.914062 538.546875 402.441406 536.460938 401.5 534.917969 C 400.558594 533.375 399.371094 532.191406 397.941406 531.363281 C 396.515625 530.535156 394.929688 529.949219 393.1875 529.605469 C 391.445312 529.261719 389.800781 529.003906 388.257812 528.832031 C 386.085938 528.492188 383.871094 528.003906 381.617188 527.375 C 379.359375 526.75 377.332031 525.804688 375.53125 524.546875 C 373.730469 523.292969 372.257812 521.621094 371.117188 519.535156 C 369.972656 517.449219 369.402344 514.808594 369.402344 511.609375 C 369.402344 506.921875 370.890625 503.351562 373.859375 500.894531 C 376.828125 498.496094 381.660156 497.292969 388.34375 497.292969 C 390.742188 497.292969 393.425781 497.4375 396.398438 497.722656 C 399.371094 498.007812 402.199219 498.324219 404.882812 498.664062 L 404.542969 501.664062 C 400.257812 501.152344 396.730469 500.78125 393.957031 500.550781 C 391.1875 500.324219 389.144531 500.207031 387.828125 500.207031 C 377.660156 500.207031 372.574219 504.320312 372.574219 512.550781 C 372.574219 514.835938 372.859375 516.675781 373.433594 518.078125 C 374 519.480469 374.933594 520.621094 376.214844 521.503906 C 377.503906 522.394531 379.144531 523.121094 381.144531 523.691406 C 383.144531 524.261719 385.542969 524.863281 388.34375 525.492188 C 390.515625 525.949219 392.65625 526.476562 394.773438 527.078125 C 396.882812 527.675781 398.785156 528.503906 400.46875 529.5625 C 402.15625 530.621094 403.515625 532.019531 404.542969 533.761719 C 405.570312 535.503906 406.085938 537.71875 406.085938 540.402344 C 406.085938 546.800781 404.65625 551.488281 401.796875 554.457031 C 398.941406 557.429688 394.34375 558.914062 388 558.914062 C 387.316406 558.914062 386.488281 558.902344 385.515625 558.871094 C 384.542969 558.84375 383.328125 558.785156 381.871094 558.699219 C 380.414062 558.617188 378.6875 558.472656 376.6875 558.273438 C 374.6875 558.074219 372.34375 557.800781 369.660156 557.457031 Z M 352.007812 497.292969 L 360.574219 497.292969 L 360.574219 558.230469 L 352.007812 558.230469 Z M 198.285156 499.351562 L 207.113281 499.351562 L 207.113281 558.230469 L 198.285156 558.230469 Z M 154.320312 515.378906 L 157.40625 515.378906 L 170.175781 555.488281 L 173.605469 555.488281 L 186.289062 515.378906 L 189.460938 515.378906 L 169.835938 577.941406 L 166.664062 577.941406 L 172.746094 558.230469 L 167.605469 558.230469 Z M 90.472656 558.230469 L 90.472656 498.238281 L 96.902344 498.238281 L 118.070312 553.003906 L 139.066406 498.238281 L 145.496094 498.238281 L 145.496094 558.230469 L 142.410156 558.230469 L 142.410156 501.066406 L 141.382812 501.066406 L 120.125 556.429688 L 115.839844 556.429688 L 94.414062 501.066406 L 93.558594 501.066406 L 93.558594 558.230469 Z M 90.472656 558.230469 "></path><path fill-rule="nonzero" fill="rgb(98.039246%, 74.118042%, 64.706421%)" fill-opacity="1" d="M 531.046875 658.445312 L 531.046875 654.273438 L 482.789062 654.273438 C 478.515625 654.273438 475.035156 650.792969 475.035156 646.519531 L 475.035156 634.59375 L 470.863281 634.59375 L 470.863281 646.519531 C 470.863281 650.792969 467.386719 654.273438 463.109375 654.273438 L 453.078125 654.273438 C 448.800781 654.273438 445.324219 650.792969 445.324219 646.519531 L 445.324219 638.84375 C 445.324219 632.824219 440.425781 627.925781 434.40625 627.925781 L 419.820312 627.925781 L 432.761719 620.066406 L 430.59375 616.5 L 411.597656 628.03125 L 411.597656 632.097656 L 434.40625 632.097656 C 438.125 632.097656 441.152344 635.125 441.152344 638.84375 L 441.152344 646.519531 C 441.152344 650.792969 437.671875 654.273438 433.402344 654.273438 L 384.738281 654.273438 L 384.738281 658.445312 L 433.402344 658.445312 C 436.660156 658.445312 439.820312 657.074219 442.078125 654.679688 L 443.238281 653.445312 L 444.402344 654.679688 C 446.652344 657.074219 449.816406 658.445312 453.078125 658.445312 L 463.109375 658.445312 C 466.371094 658.445312 469.53125 657.074219 471.789062 654.679688 L 472.953125 653.445312 L 474.109375 654.683594 C 475.988281 656.6875 478.417969 657.945312 481.136719 658.316406 L 481.664062 658.445312 Z M 458.933594 674.820312 L 463.195312 670.558594 L 458.933594 666.296875 L 454.671875 670.558594 Z M 279.46875 629.347656 L 272.953125 622.832031 L 279.46875 616.320312 L 285.980469 622.832031 Z M 220.132812 652.8125 L 215.566406 652.8125 C 213.046875 652.8125 210.996094 650.761719 210.996094 648.242188 L 210.996094 645.066406 C 210.996094 642.546875 213.046875 640.496094 215.566406 640.496094 C 218.082031 640.496094 220.132812 642.546875 220.132812 645.066406 Z M 215.566406 633.136719 C 208.988281 633.136719 203.636719 638.488281 203.636719 645.066406 L 203.636719 648.242188 C 203.636719 654.824219 208.988281 660.175781 215.566406 660.175781 L 227.492188 660.175781 L 227.492188 645.066406 C 227.492188 638.488281 222.144531 633.136719 215.566406 633.136719 M 231.03125 615.820312 L 238.394531 615.820312 L 238.394531 660.175781 L 231.03125 660.175781 Z M 258.429688 652.8125 L 253.863281 652.8125 C 251.34375 652.8125 249.296875 650.761719 249.296875 648.242188 L 249.296875 645.066406 C 249.296875 642.546875 251.34375 640.496094 253.863281 640.496094 C 256.382812 640.496094 258.429688 642.546875 258.429688 645.066406 Z M 328.65625 646.652344 C 328.65625 650.050781 325.894531 652.8125 322.5 652.8125 L 309.359375 652.8125 L 309.359375 645.648438 C 309.359375 638.75 303.746094 633.136719 296.847656 633.136719 L 273.375 633.136719 L 273.375 640.496094 L 296.847656 640.496094 C 299.691406 640.496094 302 642.808594 302 645.648438 L 302 652.8125 L 265.792969 652.8125 L 265.792969 645.066406 C 265.792969 638.488281 260.441406 633.136719 253.863281 633.136719 C 247.285156 633.136719 241.933594 638.488281 241.933594 645.066406 L 241.933594 648.242188 C 241.933594 654.824219 247.285156 660.175781 253.863281 660.175781 L 258.429688 660.175781 L 258.429688 664.433594 L 250.078125 672.789062 L 255.28125 677.992188 L 265.792969 667.480469 L 265.792969 660.175781 L 322.5 660.175781 C 329.953125 660.175781 336.019531 654.109375 336.019531 646.652344 L 336.019531 616.789062 L 328.65625 616.789062 Z M 375.355469 645.648438 L 375.355469 660.175781 L 339.371094 660.175781 L 339.371094 652.8125 L 367.996094 652.8125 L 367.996094 645.648438 C 367.996094 642.808594 365.683594 640.496094 362.84375 640.496094 L 339.371094 640.496094 L 339.371094 633.136719 L 362.84375 633.136719 C 369.742188 633.136719 375.355469 638.75 375.355469 645.648438 M 183.917969 654.40625 C 187.316406 654.40625 190.082031 651.640625 190.082031 648.246094 L 190.082031 645.0625 C 190.082031 641.667969 187.316406 638.902344 183.917969 638.902344 C 180.519531 638.902344 177.757812 641.667969 177.757812 645.0625 L 177.757812 654.40625 Z M 100.402344 678.257812 C 94.375 678.257812 89.472656 673.355469 89.472656 667.328125 L 89.472656 652.136719 C 89.472656 646.109375 94.375 641.210938 100.402344 641.210938 L 111.015625 641.210938 L 111.035156 658.578125 L 106.859375 658.582031 L 106.84375 645.382812 L 100.402344 645.382812 C 96.679688 645.382812 93.648438 648.414062 93.648438 652.136719 L 93.648438 667.328125 C 93.648438 671.050781 96.679688 674.085938 100.402344 674.085938 L 124.214844 674.085938 L 124.246094 641.210938 L 128.421875 641.214844 L 128.417969 647.652344 C 128.417969 651.375 131.453125 654.40625 135.175781 654.40625 L 173.582031 654.40625 L 173.582031 645.0625 C 173.582031 639.363281 178.21875 634.730469 183.917969 634.730469 C 189.617188 634.730469 194.253906 639.363281 194.253906 645.0625 L 194.253906 648.246094 C 194.253906 653.1875 190.722656 657.449219 185.859375 658.386719 L 184.609375 658.582031 L 135.175781 658.582031 C 133.601562 658.582031 132.082031 658.25 130.664062 657.597656 L 128.410156 656.5625 L 128.386719 678.257812 Z M 100.402344 678.257812 "></path></svg>