<?xml version="1.0"?>
<svg xmlns="http://www.w3.org/2000/svg" width="260" height="110" viewBox="168 518 260 110">
<path fill-rule="nonzero" fill="#FFFFFF" fill-opacity="1" d="M 381.664062 532.128906 L 385.886719 527.90625 L 390.105469 532.128906 L 385.886719 536.347656 Z M 346.730469 532.128906 L 350.949219 527.90625 L 355.167969 532.128906 L 350.949219 536.347656 Z M 332.53125 561.539062 L 355.167969 561.539062 L 355.167969 565.839844 L 332.53125 565.839844 C 326.171875 565.839844 320.996094 560.664062 320.996094 554.300781 L 320.996094 547.066406 L 293.6875 547.066406 L 293.6875 542.765625 L 325.296875 542.765625 L 325.296875 554.300781 C 325.296875 558.292969 328.542969 561.539062 332.53125 561.539062 M 419.648438 561.539062 L 419.648438 565.839844 L 362.011719 565.839844 L 362.011719 532.210938 L 366.3125 532.210938 L 366.3125 561.539062 L 409.429688 561.539062 L 409.429688 553.34375 C 409.429688 549.882812 406.613281 547.066406 403.152344 547.066406 L 382.117188 547.066406 L 382.117188 542.765625 L 403.152344 542.765625 C 408.984375 542.765625 413.730469 547.511719 413.730469 553.34375 L 413.730469 561.539062 Z M 196.613281 570.058594 L 200.832031 565.839844 L 205.054688 570.058594 L 200.832031 574.277344 Z M 316.605469 612.140625 L 320.824219 607.921875 L 325.042969 612.140625 L 320.824219 616.359375 Z M 382.632812 612.140625 L 386.851562 607.921875 L 391.070312 612.140625 L 386.851562 616.359375 Z M 389.988281 612.140625 L 394.207031 607.921875 L 398.429688 612.140625 L 394.207031 616.359375 Z M 397.347656 612.140625 L 401.566406 607.921875 L 405.785156 612.140625 L 401.566406 616.359375 Z M 343.132812 580.699219 L 347.433594 580.699219 L 347.433594 603.769531 L 304.269531 603.769531 C 298.4375 603.769531 293.6875 599.023438 293.6875 593.1875 L 293.6875 580.699219 L 297.988281 580.699219 L 297.988281 593.1875 C 297.988281 596.652344 300.808594 599.472656 304.269531 599.472656 L 343.132812 599.472656 Z M 260.15625 593.75 C 260.15625 596.90625 257.589844 599.472656 254.4375 599.472656 L 248.71875 599.472656 L 248.71875 590.71875 C 248.71875 588.589844 248.046875 586.621094 246.910156 585 L 260.15625 585 Z M 238.695312 599.472656 C 235.542969 599.472656 232.976562 596.90625 232.976562 593.75 L 232.976562 590.71875 C 232.976562 587.5625 235.542969 585 238.695312 585 C 241.851562 585 244.414062 587.5625 244.414062 590.71875 L 244.414062 599.472656 Z M 221.8125 580.699219 L 221.8125 585 L 230.480469 585 C 229.347656 586.621094 228.679688 588.589844 228.679688 590.71875 L 228.679688 593.75 C 228.679688 595.878906 229.347656 597.847656 230.480469 599.472656 L 221.292969 599.472656 C 217.828125 599.472656 215.011719 596.652344 215.011719 593.1875 L 215.011719 580.699219 L 193.617188 580.699219 C 187.78125 580.699219 183.03125 585.445312 183.03125 591.28125 L 183.03125 609.757812 L 175.625 617.167969 L 178.667969 620.207031 L 187.332031 611.539062 L 187.332031 591.28125 C 187.332031 587.816406 190.152344 585 193.617188 585 L 210.710938 585 L 210.710938 593.1875 C 210.710938 599.023438 215.457031 603.769531 221.292969 603.769531 L 254.4375 603.769531 C 259.960938 603.769531 264.453125 599.277344 264.453125 593.75 L 264.453125 580.699219 Z M 279.164062 599.472656 C 276.011719 599.472656 273.445312 596.90625 273.445312 593.75 L 273.445312 590.71875 C 273.445312 587.5625 276.011719 585 279.164062 585 C 282.320312 585 284.886719 587.5625 284.886719 590.71875 L 284.886719 599.472656 Z M 279.164062 580.699219 C 273.640625 580.699219 269.144531 585.191406 269.144531 590.71875 L 269.144531 593.75 C 269.144531 599.277344 273.640625 603.769531 279.164062 603.769531 L 284.886719 603.769531 L 284.886719 609.757812 L 277.476562 617.167969 L 280.519531 620.207031 L 289.1875 611.539062 L 289.1875 590.71875 C 289.1875 585.191406 284.691406 580.699219 279.164062 580.699219 M 364.160156 599.472656 L 362.144531 599.472656 C 358.988281 599.472656 356.421875 596.90625 356.421875 593.75 L 356.421875 590.71875 C 356.421875 587.5625 358.988281 585 362.144531 585 C 365.296875 585 367.863281 587.5625 367.863281 590.71875 L 367.863281 599.472656 Z M 413.730469 591.273438 C 413.730469 585.441406 408.984375 580.699219 403.152344 580.699219 L 382.117188 580.699219 L 382.117188 585 L 403.152344 585 C 406.613281 585 409.429688 587.8125 409.429688 591.273438 L 409.429688 599.472656 L 372.160156 599.472656 L 372.160156 590.71875 C 372.160156 585.191406 367.667969 580.699219 362.144531 580.699219 C 356.617188 580.699219 352.121094 585.191406 352.121094 590.71875 L 352.121094 593.75 C 352.121094 599.277344 356.617188 603.769531 362.144531 603.769531 L 367.863281 603.769531 L 367.863281 609.757812 L 360.453125 617.167969 L 363.496094 620.207031 L 372.160156 611.539062 L 372.160156 603.769531 L 419.648438 603.769531 L 419.648438 599.472656 L 413.730469 599.472656 Z M 413.730469 591.273438 "></path>
</svg>
