<?xml version="1.0"?>
<svg xmlns="http://www.w3.org/2000/svg" xmlns:xlink="http://www.w3.org/1999/xlink" width="260" height="110" viewBox="168 518 260 110">
<path fill-rule="nonzero" fill="rgb(0%, 0%, 0%)" fill-opacity="1" d="M 198.355469 698.824219 C 196.960938 697.949219 195.320312 697.433594 193.558594 697.433594 L 179.882812 697.433594 L 179.882812 685.257812 L 175.625 685.257812 L 175.625 720.351562 L 179.882812 720.351562 L 179.882812 701.691406 L 193.558594 701.691406 C 196.203125 701.691406 198.355469 703.84375 198.355469 706.488281 L 198.355469 720.351562 L 202.613281 720.351562 L 202.613281 685.257812 L 198.355469 685.257812 Z M 252.644531 697.433594 C 249.402344 697.433594 246.496094 698.890625 244.542969 701.183594 C 242.894531 698.914062 240.222656 697.433594 237.207031 697.433594 L 226.570312 697.433594 L 226.570312 720.351562 L 230.828125 720.351562 L 230.828125 701.691406 L 237.207031 701.691406 C 239.851562 701.691406 242.007812 703.84375 242.007812 706.488281 L 242.007812 720.664062 L 246.261719 720.664062 L 246.261719 708.070312 C 246.261719 704.554688 249.125 701.691406 252.644531 701.691406 C 255.289062 701.691406 257.441406 703.84375 257.441406 706.488281 L 257.441406 720.351562 L 261.699219 720.351562 L 261.699219 706.488281 C 261.699219 701.496094 257.636719 697.433594 252.644531 697.433594 M 268.878906 706.796875 L 278.476562 706.9375 L 278.476562 706.488281 C 278.476562 703.84375 276.324219 701.691406 273.679688 701.691406 C 271.03125 701.691406 268.878906 703.84375 268.878906 706.488281 Z M 268.878906 711.054688 L 268.878906 711.296875 C 268.878906 713.941406 271.03125 716.09375 273.679688 716.09375 L 277.410156 716.09375 L 277.410156 720.351562 L 273.679688 720.351562 C 268.683594 720.351562 264.625 716.289062 264.625 711.296875 L 264.625 706.488281 C 264.625 701.496094 268.683594 697.433594 273.679688 697.433594 C 278.671875 697.433594 282.734375 701.496094 282.734375 706.488281 L 282.734375 711.257812 Z M 219.390625 706.488281 C 219.390625 703.84375 217.238281 701.691406 214.589844 701.691406 C 211.945312 701.691406 209.792969 703.84375 209.792969 706.488281 L 209.792969 711.296875 C 209.792969 713.941406 211.945312 716.09375 214.589844 716.09375 C 217.238281 716.09375 219.390625 713.941406 219.390625 711.296875 Z M 223.648438 706.488281 L 223.648438 711.296875 C 223.648438 716.289062 219.585938 720.351562 214.589844 720.351562 C 209.597656 720.351562 205.535156 716.289062 205.535156 711.296875 L 205.535156 706.488281 C 205.535156 701.496094 209.597656 697.433594 214.589844 697.433594 C 219.585938 697.433594 223.648438 701.496094 223.648438 706.488281 M 340.855469 644.597656 L 340.855469 679.691406 L 336.601562 679.691406 L 336.601562 665.828125 C 336.601562 663.183594 334.449219 661.03125 331.800781 661.03125 L 318.128906 661.03125 L 318.128906 679.691406 L 313.871094 679.691406 L 313.871094 644.597656 L 318.128906 644.597656 L 318.128906 656.773438 L 331.800781 656.773438 C 333.566406 656.773438 335.207031 657.289062 336.601562 658.164062 L 336.601562 644.597656 Z M 352.835938 661.03125 C 350.191406 661.03125 348.039062 663.183594 348.039062 665.828125 L 348.039062 670.636719 C 348.039062 673.28125 350.191406 675.433594 352.835938 675.433594 C 355.480469 675.433594 357.632812 673.28125 357.632812 670.636719 L 357.632812 665.828125 C 357.632812 663.183594 355.480469 661.03125 352.835938 661.03125 M 352.835938 679.691406 C 347.84375 679.691406 343.78125 675.628906 343.78125 670.636719 L 343.78125 665.828125 C 343.78125 660.835938 347.84375 656.773438 352.835938 656.773438 C 357.828125 656.773438 361.890625 660.835938 361.890625 665.828125 L 361.890625 670.636719 C 361.890625 675.628906 357.828125 679.691406 352.835938 679.691406 M 274.476562 675.433594 L 280.855469 675.433594 C 283.503906 675.433594 285.65625 673.28125 285.65625 670.636719 L 285.65625 665.828125 C 285.65625 663.183594 283.503906 661.03125 280.855469 661.03125 L 274.476562 661.03125 Z M 280.855469 679.691406 L 270.21875 679.691406 L 270.21875 644.597656 L 274.476562 644.597656 L 274.476562 656.773438 L 280.855469 656.773438 C 285.851562 656.773438 289.914062 660.835938 289.914062 665.828125 L 289.914062 670.636719 C 289.914062 675.628906 285.851562 679.691406 280.855469 679.691406 M 396.488281 675.433594 C 393.839844 675.433594 391.6875 673.28125 391.6875 670.636719 L 391.6875 665.828125 C 391.6875 663.183594 393.839844 661.03125 396.488281 661.03125 C 399.132812 661.03125 401.285156 663.183594 401.285156 665.828125 L 401.285156 670.636719 C 401.285156 673.28125 399.132812 675.433594 396.488281 675.433594 M 401.285156 656.773438 L 401.285156 658.164062 C 399.890625 657.289062 398.25 656.773438 396.488281 656.773438 C 391.496094 656.773438 387.429688 660.835938 387.429688 665.828125 L 387.429688 670.636719 C 387.429688 675.628906 391.496094 679.691406 396.488281 679.691406 C 398.25 679.691406 399.890625 679.175781 401.285156 678.300781 L 401.285156 679.691406 L 405.542969 679.691406 L 405.542969 656.773438 Z M 419.648438 656.773438 L 419.648438 661.03125 L 417.519531 661.03125 C 414.875 661.03125 412.722656 663.183594 412.722656 665.828125 L 412.722656 679.691406 L 408.464844 679.691406 L 408.464844 656.773438 L 412.722656 656.773438 L 412.722656 658.164062 C 414.117188 657.289062 415.757812 656.773438 417.519531 656.773438 Z M 384.507812 679.691406 L 380.25 679.691406 L 380.25 665.828125 C 380.25 663.183594 378.097656 661.03125 375.453125 661.03125 L 369.074219 661.03125 L 369.074219 679.691406 L 364.816406 679.691406 L 364.816406 656.773438 L 375.453125 656.773438 C 380.445312 656.773438 384.507812 660.835938 384.507812 665.828125 Z M 225.226562 665.828125 L 225.226562 679.691406 L 220.972656 679.691406 L 220.972656 665.828125 C 220.972656 663.183594 218.820312 661.03125 216.171875 661.03125 L 209.792969 661.03125 L 209.792969 679.691406 L 205.535156 679.691406 L 205.535156 644.597656 L 209.792969 644.597656 L 209.792969 656.773438 L 216.171875 656.773438 C 221.167969 656.773438 225.226562 660.835938 225.226562 665.828125 M 301.890625 661.03125 C 299.246094 661.03125 297.09375 663.183594 297.09375 665.828125 L 297.09375 670.636719 C 297.09375 673.28125 299.246094 675.433594 301.890625 675.433594 C 304.539062 675.433594 306.691406 673.28125 306.691406 670.636719 L 306.691406 665.828125 C 306.691406 663.183594 304.539062 661.03125 301.890625 661.03125 M 301.890625 679.691406 C 296.898438 679.691406 292.835938 675.628906 292.835938 670.636719 L 292.835938 665.828125 C 292.835938 660.835938 296.898438 656.773438 301.890625 656.773438 C 306.882812 656.773438 310.949219 660.835938 310.949219 665.828125 L 310.949219 670.636719 C 310.949219 675.628906 306.882812 679.691406 301.890625 679.691406 M 258.242188 661.03125 C 255.59375 661.03125 253.441406 663.183594 253.441406 665.828125 L 253.441406 670.636719 C 253.441406 673.28125 255.59375 675.433594 258.242188 675.433594 C 260.886719 675.433594 263.042969 673.28125 263.042969 670.636719 L 263.042969 665.828125 C 263.042969 663.183594 260.886719 661.03125 258.242188 661.03125 M 258.242188 679.691406 C 253.25 679.691406 249.1875 675.628906 249.1875 670.636719 L 249.1875 665.828125 C 249.1875 660.835938 253.25 656.773438 258.242188 656.773438 C 263.234375 656.773438 267.296875 660.835938 267.296875 665.828125 L 267.296875 670.636719 C 267.296875 675.628906 263.234375 679.691406 258.242188 679.691406 M 237.207031 661.03125 C 234.5625 661.03125 232.410156 663.183594 232.410156 665.828125 L 232.410156 670.636719 C 232.410156 673.28125 234.5625 675.433594 237.207031 675.433594 C 239.851562 675.433594 242.007812 673.28125 242.007812 670.636719 L 242.007812 665.828125 C 242.007812 663.183594 239.851562 661.03125 237.207031 661.03125 M 237.207031 679.691406 C 232.214844 679.691406 228.152344 675.628906 228.152344 670.636719 L 228.152344 665.828125 C 228.152344 660.835938 232.214844 656.773438 237.207031 656.773438 C 242.199219 656.773438 246.261719 660.835938 246.261719 665.828125 L 246.261719 670.636719 C 246.261719 675.628906 242.199219 679.691406 237.207031 679.691406 M 179.882812 664.273438 L 179.882812 670.636719 C 179.882812 673.28125 182.035156 675.433594 184.679688 675.433594 L 202.613281 675.433594 L 202.613281 679.691406 L 184.679688 679.691406 C 179.6875 679.691406 175.625 675.628906 175.625 670.636719 L 175.625 653.65625 C 175.625 648.660156 179.6875 644.597656 184.679688 644.597656 L 202.613281 644.597656 L 202.613281 648.855469 L 184.679688 648.855469 C 182.035156 648.855469 179.882812 651.007812 179.882812 653.65625 Z M 179.882812 664.273438 "></path>
<path fill-rule="nonzero" fill="rgb(0%, 0%, 0%)" fill-opacity="1" d="M 381.664062 532.128906 L 385.886719 527.90625 L 390.105469 532.128906 L 385.886719 536.347656 Z M 346.730469 532.128906 L 350.949219 527.90625 L 355.167969 532.128906 L 350.949219 536.347656 Z M 332.53125 561.539062 L 355.167969 561.539062 L 355.167969 565.839844 L 332.53125 565.839844 C 326.171875 565.839844 320.996094 560.664062 320.996094 554.300781 L 320.996094 547.066406 L 293.6875 547.066406 L 293.6875 542.765625 L 325.296875 542.765625 L 325.296875 554.300781 C 325.296875 558.292969 328.542969 561.539062 332.53125 561.539062 M 419.648438 561.539062 L 419.648438 565.839844 L 362.011719 565.839844 L 362.011719 532.210938 L 366.3125 532.210938 L 366.3125 561.539062 L 409.429688 561.539062 L 409.429688 553.34375 C 409.429688 549.882812 406.613281 547.066406 403.152344 547.066406 L 382.117188 547.066406 L 382.117188 542.765625 L 403.152344 542.765625 C 408.984375 542.765625 413.730469 547.511719 413.730469 553.34375 L 413.730469 561.539062 Z M 196.613281 570.058594 L 200.832031 565.839844 L 205.054688 570.058594 L 200.832031 574.277344 Z M 316.605469 612.140625 L 320.824219 607.921875 L 325.042969 612.140625 L 320.824219 616.359375 Z M 382.632812 612.140625 L 386.851562 607.921875 L 391.070312 612.140625 L 386.851562 616.359375 Z M 389.988281 612.140625 L 394.207031 607.921875 L 398.429688 612.140625 L 394.207031 616.359375 Z M 397.347656 612.140625 L 401.566406 607.921875 L 405.785156 612.140625 L 401.566406 616.359375 Z M 343.132812 580.699219 L 347.433594 580.699219 L 347.433594 603.769531 L 304.269531 603.769531 C 298.4375 603.769531 293.6875 599.023438 293.6875 593.1875 L 293.6875 580.699219 L 297.988281 580.699219 L 297.988281 593.1875 C 297.988281 596.652344 300.808594 599.472656 304.269531 599.472656 L 343.132812 599.472656 Z M 260.15625 593.75 C 260.15625 596.90625 257.589844 599.472656 254.4375 599.472656 L 248.71875 599.472656 L 248.71875 590.71875 C 248.71875 588.589844 248.046875 586.621094 246.910156 585 L 260.15625 585 Z M 238.695312 599.472656 C 235.542969 599.472656 232.976562 596.90625 232.976562 593.75 L 232.976562 590.71875 C 232.976562 587.5625 235.542969 585 238.695312 585 C 241.851562 585 244.414062 587.5625 244.414062 590.71875 L 244.414062 599.472656 Z M 221.8125 580.699219 L 221.8125 585 L 230.480469 585 C 229.347656 586.621094 228.679688 588.589844 228.679688 590.71875 L 228.679688 593.75 C 228.679688 595.878906 229.347656 597.847656 230.480469 599.472656 L 221.292969 599.472656 C 217.828125 599.472656 215.011719 596.652344 215.011719 593.1875 L 215.011719 580.699219 L 193.617188 580.699219 C 187.78125 580.699219 183.03125 585.445312 183.03125 591.28125 L 183.03125 609.757812 L 175.625 617.167969 L 178.667969 620.207031 L 187.332031 611.539062 L 187.332031 591.28125 C 187.332031 587.816406 190.152344 585 193.617188 585 L 210.710938 585 L 210.710938 593.1875 C 210.710938 599.023438 215.457031 603.769531 221.292969 603.769531 L 254.4375 603.769531 C 259.960938 603.769531 264.453125 599.277344 264.453125 593.75 L 264.453125 580.699219 Z M 279.164062 599.472656 C 276.011719 599.472656 273.445312 596.90625 273.445312 593.75 L 273.445312 590.71875 C 273.445312 587.5625 276.011719 585 279.164062 585 C 282.320312 585 284.886719 587.5625 284.886719 590.71875 L 284.886719 599.472656 Z M 279.164062 580.699219 C 273.640625 580.699219 269.144531 585.191406 269.144531 590.71875 L 269.144531 593.75 C 269.144531 599.277344 273.640625 603.769531 279.164062 603.769531 L 284.886719 603.769531 L 284.886719 609.757812 L 277.476562 617.167969 L 280.519531 620.207031 L 289.1875 611.539062 L 289.1875 590.71875 C 289.1875 585.191406 284.691406 580.699219 279.164062 580.699219 M 364.160156 599.472656 L 362.144531 599.472656 C 358.988281 599.472656 356.421875 596.90625 356.421875 593.75 L 356.421875 590.71875 C 356.421875 587.5625 358.988281 585 362.144531 585 C 365.296875 585 367.863281 587.5625 367.863281 590.71875 L 367.863281 599.472656 Z M 413.730469 591.273438 C 413.730469 585.441406 408.984375 580.699219 403.152344 580.699219 L 382.117188 580.699219 L 382.117188 585 L 403.152344 585 C 406.613281 585 409.429688 587.8125 409.429688 591.273438 L 409.429688 599.472656 L 372.160156 599.472656 L 372.160156 590.71875 C 372.160156 585.191406 367.667969 580.699219 362.144531 580.699219 C 356.617188 580.699219 352.121094 585.191406 352.121094 590.71875 L 352.121094 593.75 C 352.121094 599.277344 356.617188 603.769531 362.144531 603.769531 L 367.863281 603.769531 L 367.863281 609.757812 L 360.453125 617.167969 L 363.496094 620.207031 L 372.160156 611.539062 L 372.160156 603.769531 L 419.648438 603.769531 L 419.648438 599.472656 L 413.730469 599.472656 Z M 413.730469 591.273438 "></path>
<path fill-rule="nonzero" fill="rgb(0%, 0%, 0%)" fill-opacity="1" d="M 190.601562 198.253906 L 183.769531 198.253906 L 183.769531 182.304688 C 183.769531 179.847656 181.769531 177.847656 179.3125 177.847656 L 149.632812 177.847656 L 149.632812 185.097656 L 142.800781 185.097656 L 142.800781 157.4375 L 149.632812 157.4375 L 149.632812 171.015625 L 179.3125 171.015625 C 185.535156 171.015625 190.601562 176.082031 190.601562 182.304688 Z M 149.632812 198.253906 L 106.445312 198.253906 C 100.332031 198.253906 95.363281 193.285156 95.363281 187.175781 L 95.363281 168.519531 C 95.363281 162.410156 100.332031 157.4375 106.445312 157.4375 L 135.96875 157.4375 L 135.96875 164.144531 L 106.445312 164.144531 C 104.03125 164.144531 102.066406 166.105469 102.066406 168.519531 L 102.066406 187.175781 C 102.066406 189.585938 104.03125 191.550781 106.445312 191.550781 L 149.632812 191.550781 Z M 81.757812 211.859375 L 231.417969 211.859375 L 231.417969 62.199219 L 81.757812 62.199219 Z M 243.890625 194.277344 C 246.695312 194.277344 248.976562 196.558594 248.976562 199.359375 C 248.976562 202.164062 246.695312 204.445312 243.890625 204.445312 C 241.085938 204.445312 238.804688 202.164062 238.804688 199.359375 C 238.804688 196.558594 241.085938 194.277344 243.890625 194.277344 M 243.890625 205.625 C 247.34375 205.625 250.152344 202.816406 250.152344 199.359375 C 250.152344 195.90625 247.34375 193.097656 243.890625 193.097656 C 240.4375 193.097656 237.625 195.90625 237.625 199.359375 C 237.625 202.816406 240.4375 205.625 243.890625 205.625 M 242.945312 197.3125 L 244.332031 197.3125 C 244.644531 197.3125 244.878906 197.402344 245.042969 197.574219 C 245.207031 197.75 245.289062 197.96875 245.289062 198.238281 C 245.289062 198.503906 245.210938 198.722656 245.050781 198.894531 C 244.890625 199.066406 244.652344 199.152344 244.332031 199.152344 L 242.945312 199.152344 Z M 242.945312 200.378906 L 244.179688 200.378906 C 244.214844 200.449219 244.257812 200.554688 244.316406 200.691406 C 244.371094 200.828125 244.433594 200.980469 244.503906 201.148438 C 244.574219 201.3125 244.648438 201.488281 244.726562 201.671875 C 244.800781 201.855469 244.875 202.027344 244.945312 202.195312 C 245.015625 202.359375 245.078125 202.511719 245.132812 202.648438 C 245.191406 202.785156 245.230469 202.890625 245.257812 202.964844 L 246.738281 202.964844 L 245.5 200.148438 C 245.679688 200.054688 245.835938 199.9375 245.976562 199.792969 C 246.117188 199.652344 246.234375 199.496094 246.332031 199.324219 C 246.429688 199.15625 246.5 198.976562 246.550781 198.785156 C 246.601562 198.597656 246.625 198.410156 246.625 198.234375 C 246.625 197.984375 246.585938 197.734375 246.511719 197.480469 C 246.433594 197.222656 246.316406 196.992188 246.152344 196.785156 C 245.988281 196.578125 245.785156 196.410156 245.535156 196.28125 C 245.285156 196.152344 244.988281 196.085938 244.640625 196.085938 L 241.578125 196.085938 L 241.578125 202.964844 L 242.945312 202.964844 Z M 475.535156 121.683594 L 479.753906 117.460938 L 483.976562 121.683594 L 479.753906 125.902344 Z M 440.597656 121.683594 L 444.820312 117.460938 L 449.039062 121.683594 L 444.820312 125.902344 Z M 426.402344 151.09375 L 449.039062 151.09375 L 449.039062 155.394531 L 426.402344 155.394531 C 420.039062 155.394531 414.867188 150.21875 414.867188 143.855469 L 414.867188 136.621094 L 387.554688 136.621094 L 387.554688 132.320312 L 419.164062 132.320312 L 419.164062 143.855469 C 419.164062 147.847656 422.414062 151.09375 426.402344 151.09375 M 513.519531 151.09375 L 513.519531 155.394531 L 455.878906 155.394531 L 455.878906 121.765625 L 460.179688 121.765625 L 460.179688 151.09375 L 503.296875 151.09375 L 503.296875 142.894531 C 503.296875 139.433594 500.484375 136.621094 497.023438 136.621094 L 475.988281 136.621094 L 475.988281 132.320312 L 497.023438 132.320312 C 502.851562 132.320312 507.597656 137.066406 507.597656 142.894531 L 507.597656 151.09375 Z M 290.480469 159.613281 L 294.703125 155.394531 L 298.921875 159.613281 L 294.703125 163.832031 Z M 410.472656 201.695312 L 414.695312 197.472656 L 418.914062 201.695312 L 414.695312 205.914062 Z M 476.5 201.695312 L 480.722656 197.472656 L 484.941406 201.695312 L 480.722656 205.914062 Z M 483.859375 201.695312 L 488.078125 197.472656 L 492.296875 201.695312 L 488.078125 205.914062 Z M 491.214844 201.695312 L 495.433594 197.472656 L 499.65625 201.695312 L 495.433594 205.914062 Z M 437 170.253906 L 441.300781 170.253906 L 441.300781 193.324219 L 398.140625 193.324219 C 392.304688 193.324219 387.554688 188.574219 387.554688 182.738281 L 387.554688 170.253906 L 391.855469 170.253906 L 391.855469 182.738281 C 391.855469 186.207031 394.675781 189.023438 398.140625 189.023438 L 437 189.023438 Z M 354.023438 183.304688 C 354.023438 186.457031 351.457031 189.023438 348.304688 189.023438 L 342.585938 189.023438 L 342.585938 180.269531 C 342.585938 178.144531 341.914062 176.175781 340.78125 174.550781 L 354.023438 174.550781 Z M 332.566406 189.023438 C 329.414062 189.023438 326.847656 186.457031 326.847656 183.304688 L 326.847656 180.269531 C 326.847656 177.117188 329.414062 174.550781 332.566406 174.550781 C 335.71875 174.550781 338.285156 177.117188 338.285156 180.269531 L 338.285156 189.023438 Z M 315.683594 170.253906 L 315.683594 174.550781 L 324.351562 174.550781 C 323.21875 176.175781 322.546875 178.144531 322.546875 180.269531 L 322.546875 183.304688 C 322.546875 185.429688 323.21875 187.402344 324.351562 189.023438 L 315.164062 189.023438 C 311.699219 189.023438 308.878906 186.207031 308.878906 182.738281 L 308.878906 170.253906 L 287.488281 170.253906 C 281.652344 170.253906 276.902344 175 276.902344 180.835938 L 276.902344 199.3125 L 269.496094 206.71875 L 272.535156 209.757812 L 281.203125 201.09375 L 281.203125 180.835938 C 281.203125 177.371094 284.023438 174.550781 287.488281 174.550781 L 304.578125 174.550781 L 304.578125 182.738281 C 304.578125 188.574219 309.328125 193.324219 315.164062 193.324219 L 348.304688 193.324219 C 353.828125 193.324219 358.324219 188.832031 358.324219 183.304688 L 358.324219 170.253906 Z M 373.035156 189.023438 C 369.882812 189.023438 367.316406 186.457031 367.316406 183.304688 L 367.316406 180.269531 C 367.316406 177.117188 369.882812 174.550781 373.035156 174.550781 C 376.1875 174.550781 378.753906 177.117188 378.753906 180.269531 L 378.753906 189.023438 Z M 373.035156 170.253906 C 367.511719 170.253906 363.015625 174.746094 363.015625 180.269531 L 363.015625 183.304688 C 363.015625 188.832031 367.511719 193.324219 373.035156 193.324219 L 378.753906 193.324219 L 378.753906 199.3125 L 371.347656 206.71875 L 374.386719 209.757812 L 383.054688 201.09375 L 383.054688 180.269531 C 383.054688 174.746094 378.558594 170.253906 373.035156 170.253906 M 458.03125 189.023438 L 456.011719 189.023438 C 452.859375 189.023438 450.292969 186.457031 450.292969 183.304688 L 450.292969 180.269531 C 450.292969 177.117188 452.859375 174.550781 456.011719 174.550781 C 459.164062 174.550781 461.730469 177.117188 461.730469 180.269531 L 461.730469 189.023438 Z M 507.597656 180.828125 C 507.597656 174.996094 502.855469 170.253906 497.023438 170.253906 L 475.988281 170.253906 L 475.988281 174.550781 L 497.023438 174.550781 C 500.484375 174.550781 503.296875 177.367188 503.296875 180.828125 L 503.296875 189.023438 L 466.03125 189.023438 L 466.03125 180.269531 C 466.03125 174.746094 461.539062 170.253906 456.011719 170.253906 C 450.488281 170.253906 445.992188 174.746094 445.992188 180.269531 L 445.992188 183.304688 C 445.992188 188.832031 450.488281 193.324219 456.011719 193.324219 L 461.730469 193.324219 L 461.730469 199.3125 L 454.324219 206.71875 L 457.367188 209.757812 L 466.03125 201.09375 L 466.03125 193.324219 L 513.519531 193.324219 L 513.519531 189.023438 L 507.597656 189.023438 Z M 507.597656 180.828125 "></path>
<path fill-rule="nonzero" fill="rgb(0%, 0%, 0%)" fill-opacity="1" d="M 190.601562 396.417969 L 183.769531 396.417969 L 183.769531 380.46875 C 183.769531 378.011719 181.769531 376.011719 179.3125 376.011719 L 149.632812 376.011719 L 149.632812 383.261719 L 142.800781 383.261719 L 142.800781 355.601562 L 149.632812 355.601562 L 149.632812 369.179688 L 179.3125 369.179688 C 185.535156 369.179688 190.601562 374.242188 190.601562 380.46875 Z M 149.632812 396.417969 L 106.445312 396.417969 C 100.332031 396.417969 95.363281 391.445312 95.363281 385.335938 L 95.363281 366.683594 C 95.363281 360.570312 100.332031 355.601562 106.445312 355.601562 L 135.96875 355.601562 L 135.96875 362.304688 L 106.445312 362.304688 C 104.03125 362.304688 102.066406 364.269531 102.066406 366.683594 L 102.066406 385.335938 C 102.066406 387.75 104.03125 389.714844 106.445312 389.714844 L 149.632812 389.714844 Z M 81.757812 410.023438 L 231.417969 410.023438 L 231.417969 260.363281 L 81.757812 260.363281 Z M 243.890625 392.4375 C 246.695312 392.4375 248.976562 394.71875 248.976562 397.523438 C 248.976562 400.328125 246.695312 402.609375 243.890625 402.609375 C 241.085938 402.609375 238.804688 400.328125 238.804688 397.523438 C 238.804688 394.71875 241.085938 392.4375 243.890625 392.4375 M 243.890625 403.789062 C 247.34375 403.789062 250.152344 400.976562 250.152344 397.523438 C 250.152344 394.070312 247.34375 391.261719 243.890625 391.261719 C 240.4375 391.261719 237.625 394.070312 237.625 397.523438 C 237.625 400.976562 240.4375 403.789062 243.890625 403.789062 M 242.945312 395.476562 L 244.332031 395.476562 C 244.644531 395.476562 244.878906 395.5625 245.042969 395.738281 C 245.207031 395.914062 245.289062 396.132812 245.289062 396.398438 C 245.289062 396.667969 245.210938 396.886719 245.050781 397.058594 C 244.890625 397.226562 244.652344 397.3125 244.332031 397.3125 L 242.945312 397.3125 Z M 242.945312 398.542969 L 244.179688 398.542969 C 244.214844 398.613281 244.257812 398.71875 244.316406 398.855469 C 244.371094 398.992188 244.433594 399.144531 244.503906 399.308594 C 244.574219 399.476562 244.648438 399.648438 244.726562 399.832031 C 244.800781 400.015625 244.875 400.191406 244.945312 400.355469 C 245.015625 400.523438 245.078125 400.675781 245.132812 400.8125 C 245.191406 400.949219 245.230469 401.054688 245.257812 401.125 L 246.738281 401.125 L 245.5 398.3125 C 245.679688 398.21875 245.835938 398.101562 245.976562 397.957031 C 246.117188 397.8125 246.234375 397.65625 246.332031 397.488281 C 246.429688 397.316406 246.5 397.140625 246.550781 396.949219 C 246.601562 396.757812 246.625 396.574219 246.625 396.394531 C 246.625 396.148438 246.585938 395.898438 246.511719 395.640625 C 246.433594 395.386719 246.316406 395.152344 246.152344 394.949219 C 245.988281 394.742188 245.785156 394.574219 245.535156 394.445312 C 245.285156 394.3125 244.988281 394.25 244.640625 394.25 L 241.578125 394.25 L 241.578125 401.125 L 242.945312 401.125 Z M 292.222656 370.296875 C 290.832031 369.421875 289.1875 368.90625 287.425781 368.90625 L 273.753906 368.90625 L 273.753906 356.734375 L 269.496094 356.734375 L 269.496094 391.824219 L 273.753906 391.824219 L 273.753906 373.164062 L 287.425781 373.164062 C 290.074219 373.164062 292.222656 375.316406 292.222656 377.964844 L 292.222656 391.824219 L 296.480469 391.824219 L 296.480469 356.734375 L 292.222656 356.734375 Z M 346.511719 368.90625 C 343.269531 368.90625 340.363281 370.363281 338.414062 372.660156 C 336.765625 370.386719 334.089844 368.90625 331.078125 368.90625 L 320.441406 368.90625 L 320.441406 391.824219 L 324.695312 391.824219 L 324.695312 373.164062 L 331.078125 373.164062 C 333.722656 373.164062 335.875 375.316406 335.875 377.964844 L 335.875 392.140625 L 340.132812 392.140625 L 340.132812 379.546875 C 340.132812 376.027344 342.996094 373.164062 346.511719 373.164062 C 349.160156 373.164062 351.3125 375.316406 351.3125 377.964844 L 351.3125 391.824219 L 355.570312 391.824219 L 355.570312 377.964844 C 355.570312 372.972656 351.503906 368.90625 346.511719 368.90625 M 362.75 378.269531 L 372.347656 378.414062 L 372.347656 377.964844 C 372.347656 375.316406 370.195312 373.164062 367.546875 373.164062 C 364.902344 373.164062 362.75 375.316406 362.75 377.964844 Z M 362.75 382.527344 L 362.75 382.769531 C 362.75 385.414062 364.902344 387.566406 367.546875 387.566406 L 371.277344 387.566406 L 371.277344 391.824219 L 367.546875 391.824219 C 362.554688 391.824219 358.492188 387.761719 358.492188 382.769531 L 358.492188 377.964844 C 358.492188 372.972656 362.554688 368.90625 367.546875 368.90625 C 372.539062 368.90625 376.601562 372.972656 376.601562 377.964844 L 376.601562 382.730469 Z M 313.257812 377.964844 C 313.257812 375.316406 311.105469 373.164062 308.460938 373.164062 C 305.8125 373.164062 303.664062 375.316406 303.664062 377.964844 L 303.664062 382.769531 C 303.664062 385.414062 305.8125 387.566406 308.460938 387.566406 C 311.105469 387.566406 313.257812 385.414062 313.257812 382.769531 Z M 317.515625 377.964844 L 317.515625 382.769531 C 317.515625 387.761719 313.453125 391.824219 308.460938 391.824219 C 303.46875 391.824219 299.40625 387.761719 299.40625 382.769531 L 299.40625 377.964844 C 299.40625 372.972656 303.46875 368.90625 308.460938 368.90625 C 313.453125 368.90625 317.515625 372.972656 317.515625 377.964844 M 434.726562 316.074219 L 434.726562 351.164062 L 430.46875 351.164062 L 430.46875 337.304688 C 430.46875 334.65625 428.316406 332.503906 425.671875 332.503906 L 411.996094 332.503906 L 411.996094 351.164062 L 407.742188 351.164062 L 407.742188 316.074219 L 411.996094 316.074219 L 411.996094 328.25 L 425.671875 328.25 C 427.433594 328.25 429.078125 328.761719 430.46875 329.640625 L 430.46875 316.074219 Z M 446.703125 332.503906 C 444.058594 332.503906 441.90625 334.65625 441.90625 337.304688 L 441.90625 342.109375 C 441.90625 344.753906 444.058594 346.90625 446.703125 346.90625 C 449.351562 346.90625 451.503906 344.753906 451.503906 342.109375 L 451.503906 337.304688 C 451.503906 334.65625 449.351562 332.503906 446.703125 332.503906 M 446.703125 351.164062 C 441.710938 351.164062 437.648438 347.101562 437.648438 342.109375 L 437.648438 337.304688 C 437.648438 332.3125 441.710938 328.25 446.703125 328.25 C 451.699219 328.25 455.761719 332.3125 455.761719 337.304688 L 455.761719 342.109375 C 455.761719 347.101562 451.699219 351.164062 446.703125 351.164062 M 368.347656 346.90625 L 374.726562 346.90625 C 377.371094 346.90625 379.527344 344.753906 379.527344 342.109375 L 379.527344 337.304688 C 379.527344 334.65625 377.371094 332.503906 374.726562 332.503906 L 368.347656 332.503906 Z M 374.726562 351.164062 L 364.089844 351.164062 L 364.089844 316.074219 L 368.347656 316.074219 L 368.347656 328.25 L 374.726562 328.25 C 379.71875 328.25 383.78125 332.3125 383.78125 337.304688 L 383.78125 342.109375 C 383.78125 347.101562 379.71875 351.164062 374.726562 351.164062 M 490.355469 346.90625 C 487.710938 346.90625 485.558594 344.753906 485.558594 342.109375 L 485.558594 337.304688 C 485.558594 334.65625 487.710938 332.503906 490.355469 332.503906 C 493 332.503906 495.15625 334.65625 495.15625 337.304688 L 495.15625 342.109375 C 495.15625 344.753906 493 346.90625 490.355469 346.90625 M 495.15625 328.25 L 495.15625 329.640625 C 493.761719 328.761719 492.121094 328.25 490.355469 328.25 C 485.363281 328.25 481.300781 332.3125 481.300781 337.304688 L 481.300781 342.109375 C 481.300781 347.101562 485.363281 351.164062 490.355469 351.164062 C 492.121094 351.164062 493.761719 350.648438 495.15625 349.773438 L 495.15625 351.164062 L 499.414062 351.164062 L 499.414062 328.25 Z M 513.519531 328.25 L 513.519531 332.503906 L 511.390625 332.503906 C 508.746094 332.503906 506.589844 334.65625 506.589844 337.304688 L 506.589844 351.164062 L 502.335938 351.164062 L 502.335938 328.25 L 506.589844 328.25 L 506.589844 329.640625 C 507.984375 328.761719 509.625 328.25 511.390625 328.25 Z M 478.375 351.164062 L 474.121094 351.164062 L 474.121094 337.304688 C 474.121094 334.65625 471.96875 332.503906 469.320312 332.503906 L 462.941406 332.503906 L 462.941406 351.164062 L 458.683594 351.164062 L 458.683594 328.25 L 469.320312 328.25 C 474.3125 328.25 478.375 332.3125 478.375 337.304688 Z M 319.097656 337.304688 L 319.097656 351.164062 L 314.839844 351.164062 L 314.839844 337.304688 C 314.839844 334.65625 312.6875 332.503906 310.042969 332.503906 L 303.664062 332.503906 L 303.664062 351.164062 L 299.40625 351.164062 L 299.40625 316.074219 L 303.664062 316.074219 L 303.664062 328.25 L 310.042969 328.25 C 315.035156 328.25 319.097656 332.3125 319.097656 337.304688 M 395.761719 332.503906 C 393.117188 332.503906 390.960938 334.65625 390.960938 337.304688 L 390.960938 342.109375 C 390.960938 344.753906 393.117188 346.90625 395.761719 346.90625 C 398.40625 346.90625 400.558594 344.753906 400.558594 342.109375 L 400.558594 337.304688 C 400.558594 334.65625 398.40625 332.503906 395.761719 332.503906 M 395.761719 351.164062 C 390.765625 351.164062 386.707031 347.101562 386.707031 342.109375 L 386.707031 337.304688 C 386.707031 332.3125 390.765625 328.25 395.761719 328.25 C 400.753906 328.25 404.816406 332.3125 404.816406 337.304688 L 404.816406 342.109375 C 404.816406 347.101562 400.753906 351.164062 395.761719 351.164062 M 352.113281 332.503906 C 349.464844 332.503906 347.3125 334.65625 347.3125 337.304688 L 347.3125 342.109375 C 347.3125 344.753906 349.464844 346.90625 352.113281 346.90625 C 354.757812 346.90625 356.910156 344.753906 356.910156 342.109375 L 356.910156 337.304688 C 356.910156 334.65625 354.757812 332.503906 352.113281 332.503906 M 352.113281 351.164062 C 347.117188 351.164062 343.054688 347.101562 343.054688 342.109375 L 343.054688 337.304688 C 343.054688 332.3125 347.117188 328.25 352.113281 328.25 C 357.105469 328.25 361.164062 332.3125 361.164062 337.304688 L 361.164062 342.109375 C 361.164062 347.101562 357.105469 351.164062 352.113281 351.164062 M 331.078125 332.503906 C 328.429688 332.503906 326.277344 334.65625 326.277344 337.304688 L 326.277344 342.109375 C 326.277344 344.753906 328.429688 346.90625 331.078125 346.90625 C 333.722656 346.90625 335.875 344.753906 335.875 342.109375 L 335.875 337.304688 C 335.875 334.65625 333.722656 332.503906 331.078125 332.503906 M 331.078125 351.164062 C 326.082031 351.164062 322.019531 347.101562 322.019531 342.109375 L 322.019531 337.304688 C 322.019531 332.3125 326.082031 328.25 331.078125 328.25 C 336.070312 328.25 340.132812 332.3125 340.132812 337.304688 L 340.132812 342.109375 C 340.132812 347.101562 336.070312 351.164062 331.078125 351.164062 M 273.75 335.746094 L 273.75 342.109375 C 273.75 344.753906 275.90625 346.90625 278.550781 346.90625 L 296.480469 346.90625 L 296.480469 351.164062 L 278.550781 351.164062 C 273.558594 351.164062 269.496094 347.101562 269.496094 342.109375 L 269.496094 325.128906 C 269.496094 320.136719 273.558594 316.074219 278.550781 316.074219 L 296.480469 316.074219 L 296.480469 320.332031 L 278.550781 320.332031 C 275.90625 320.332031 273.75 322.484375 273.75 325.128906 Z M 273.75 335.746094 "></path>
<path fill-rule="nonzero" fill="rgb(0%, 0%, 0%)" fill-opacity="1" d="M 488.296875 999.328125 C 488.296875 1002.132812 490.578125 1004.414062 493.382812 1004.414062 C 496.1875 1004.414062 498.46875 1002.132812 498.46875 999.328125 C 498.46875 996.523438 496.1875 994.242188 493.382812 994.242188 C 490.578125 994.242188 488.296875 996.523438 488.296875 999.328125 M 487.117188 999.328125 C 487.117188 995.871094 489.929688 993.0625 493.382812 993.0625 C 496.835938 993.0625 499.648438 995.871094 499.648438 999.328125 C 499.648438 1002.78125 496.835938 1005.59375 493.382812 1005.59375 C 489.929688 1005.59375 487.117188 1002.78125 487.117188 999.328125 M 492.4375 999.117188 L 493.824219 999.117188 C 494.144531 999.117188 494.382812 999.03125 494.542969 998.859375 C 494.703125 998.691406 494.78125 998.472656 494.78125 998.203125 C 494.78125 997.933594 494.703125 997.714844 494.539062 997.539062 C 494.375 997.367188 494.136719 997.28125 493.824219 997.28125 L 492.4375 997.28125 Z M 492.4375 1002.929688 L 491.070312 1002.929688 L 491.070312 996.054688 L 494.132812 996.054688 C 494.480469 996.054688 494.777344 996.117188 495.027344 996.246094 C 495.277344 996.375 495.484375 996.542969 495.648438 996.75 C 495.808594 996.957031 495.929688 997.1875 496.003906 997.445312 C 496.082031 997.699219 496.121094 997.953125 496.121094 998.199219 C 496.121094 998.378906 496.09375 998.5625 496.046875 998.753906 C 495.996094 998.941406 495.921875 999.121094 495.824219 999.292969 C 495.730469 999.460938 495.613281 999.617188 495.472656 999.761719 C 495.332031 999.902344 495.171875 1000.023438 494.992188 1000.113281 L 496.230469 1002.929688 L 494.753906 1002.929688 C 494.726562 1002.855469 494.683594 1002.75 494.628906 1002.617188 C 494.570312 1002.480469 494.507812 1002.328125 494.4375 1002.160156 C 494.367188 1001.996094 494.296875 1001.820312 494.21875 1001.636719 C 494.144531 1001.453125 494.070312 1001.28125 494 1001.113281 C 493.929688 1000.945312 493.867188 1000.796875 493.808594 1000.660156 C 493.753906 1000.523438 493.707031 1000.417969 493.675781 1000.34375 L 492.4375 1000.34375 Z M 337.457031 1005.582031 L 474.648438 1005.582031 L 474.648438 868.394531 L 337.457031 868.394531 Z M 480.882812 1011.816406 L 331.222656 1011.816406 L 331.222656 862.15625 L 480.882812 862.15625 Z M 426.882812 968.140625 L 399.675781 968.140625 L 399.675781 955.691406 L 393.417969 955.691406 L 393.417969 981.050781 L 399.675781 981.050781 L 399.675781 974.402344 L 426.882812 974.402344 C 429.136719 974.402344 430.96875 976.234375 430.96875 978.488281 L 430.96875 993.109375 L 437.234375 993.109375 L 437.234375 978.488281 C 437.234375 972.78125 432.589844 968.140625 426.882812 968.140625 M 360.089844 986.964844 L 399.675781 986.964844 L 399.675781 993.109375 L 360.089844 993.109375 C 354.488281 993.109375 349.929688 988.554688 349.929688 982.949219 L 349.929688 965.851562 C 349.929688 960.25 354.488281 955.691406 360.089844 955.691406 L 387.15625 955.691406 L 387.15625 961.839844 L 360.089844 961.839844 C 357.875 961.839844 356.078125 963.640625 356.078125 965.851562 L 356.078125 982.949219 C 356.078125 985.164062 357.875 986.964844 360.089844 986.964844 "></path>
<path fill-rule="nonzero" fill="rgb(0%, 0%, 0%)" fill-opacity="1" d="M 204.46875 998.210938 L 197.640625 998.210938 L 197.640625 982.261719 C 197.640625 979.800781 195.640625 977.800781 193.179688 977.800781 L 163.503906 977.800781 L 163.503906 985.054688 L 156.671875 985.054688 L 156.671875 957.394531 L 163.503906 957.394531 L 163.503906 970.972656 L 193.179688 970.972656 C 199.40625 970.972656 204.46875 976.035156 204.46875 982.261719 Z M 163.503906 998.210938 L 120.316406 998.210938 C 114.203125 998.210938 109.234375 993.238281 109.234375 987.128906 L 109.234375 968.476562 C 109.234375 962.363281 114.203125 957.394531 120.316406 957.394531 L 149.839844 957.394531 L 149.839844 964.101562 L 120.316406 964.101562 C 117.902344 964.101562 115.9375 966.0625 115.9375 968.476562 L 115.9375 987.128906 C 115.9375 989.542969 117.902344 991.503906 120.316406 991.503906 L 163.503906 991.503906 Z M 95.625 1011.816406 L 245.285156 1011.816406 L 245.285156 862.15625 L 95.625 862.15625 Z M 257.761719 994.230469 C 260.566406 994.230469 262.84375 996.515625 262.84375 999.316406 C 262.84375 1002.121094 260.566406 1004.402344 257.761719 1004.402344 C 254.957031 1004.402344 252.675781 1002.121094 252.675781 999.316406 C 252.675781 996.515625 254.957031 994.230469 257.761719 994.230469 M 257.761719 1005.582031 C 261.214844 1005.582031 264.023438 1002.769531 264.023438 999.316406 C 264.023438 995.863281 261.214844 993.054688 257.761719 993.054688 C 254.304688 993.054688 251.496094 995.863281 251.496094 999.316406 C 251.496094 1002.769531 254.304688 1005.582031 257.761719 1005.582031 M 256.8125 997.269531 L 258.199219 997.269531 C 258.511719 997.269531 258.75 997.355469 258.914062 997.53125 C 259.078125 997.703125 259.160156 997.925781 259.160156 998.191406 C 259.160156 998.460938 259.078125 998.679688 258.917969 998.851562 C 258.757812 999.023438 258.519531 999.105469 258.199219 999.105469 L 256.8125 999.105469 Z M 256.8125 1000.332031 L 258.050781 1000.332031 C 258.085938 1000.40625 258.128906 1000.511719 258.1875 1000.648438 C 258.242188 1000.785156 258.304688 1000.9375 258.375 1001.101562 C 258.445312 1001.269531 258.519531 1001.441406 258.59375 1001.625 C 258.671875 1001.808594 258.746094 1001.984375 258.816406 1002.148438 C 258.882812 1002.316406 258.949219 1002.46875 259.003906 1002.605469 C 259.058594 1002.742188 259.101562 1002.84375 259.128906 1002.917969 L 260.605469 1002.917969 L 259.367188 1000.105469 C 259.546875 1000.011719 259.707031 999.894531 259.847656 999.75 C 259.988281 999.605469 260.105469 999.449219 260.203125 999.28125 C 260.296875 999.109375 260.371094 998.933594 260.421875 998.742188 C 260.472656 998.550781 260.496094 998.367188 260.496094 998.1875 C 260.496094 997.941406 260.457031 997.691406 260.382812 997.433594 C 260.304688 997.179688 260.183594 996.945312 260.023438 996.742188 C 259.859375 996.535156 259.652344 996.367188 259.402344 996.238281 C 259.15625 996.105469 258.855469 996.042969 258.511719 996.042969 L 255.445312 996.042969 L 255.445312 1002.917969 L 256.8125 1002.917969 Z M 256.8125 1000.332031 "></path>
</svg>