<?xml version="1.0" standalone="no"?>
<!DOCTYPE svg PUBLIC "-//W3C//DTD SVG 20010904//EN"
 "http://www.w3.org/TR/2001/REC-SVG-20010904/DTD/svg10.dtd">
<svg version="1.0" xmlns="http://www.w3.org/2000/svg"
 width="3509.000000pt" height="2482.000000pt" viewBox="0 0 3509.000000 2482.000000"
 preserveAspectRatio="xMidYMid meet">

<g transform="translate(0.000000,2482.000000) scale(0.100000,-0.100000)"
fill="#FFFFFF" stroke="none">
<path d="M7180 11850 l0 -3590 3590 0 3590 0 0 3590 0 3590 -3590 0 -3590 0 0
-3590z m6880 0 l0 -3290 -3290 0 -3290 0 0 3290 0 3290 3290 0 3290 0 0 -3290z"/>
<path d="M8441 10934 c-30 -8 -77 -27 -105 -42 -68 -36 -167 -135 -200 -200
-54 -107 -56 -126 -56 -642 0 -291 4 -492 11 -520 42 -184 211 -340 399 -370
41 -6 425 -10 1023 -10 l957 0 0 150 0 150 -973 0 -974 0 -44 23 c-29 16 -54
40 -74 72 l-30 48 0 456 c0 442 1 457 21 495 11 22 37 54 58 70 l38 31 689 3
689 2 0 150 0 150 -687 -1 c-568 0 -697 -3 -742 -15z"/>
<path d="M10170 10340 l0 -610 150 0 150 0 0 160 0 160 684 -2 684 -3 43 -30
c23 -16 52 -48 63 -70 20 -38 21 -57 24 -417 l3 -378 149 0 150 0 0 383 c0
311 -3 394 -15 442 -34 129 -125 250 -236 313 -110 62 -103 62 -861 62 l-688
0 0 300 0 300 -150 0 -150 0 0 -610z"/>
<path d="M24502 12687 l-102 -102 103 -103 102 -102 103 103 102 102 -103 103
-102 102 -103 -103z"/>
<path d="M26182 12687 l-102 -102 103 -103 102 -102 98 98 c53 53 97 102 97
107 0 6 -44 54 -98 108 l-97 97 -103 -103z"/>
<path d="M25140 11775 l0 -805 1380 0 1380 0 0 100 0 100 -140 0 -140 0 0 219
c0 248 -7 298 -54 396 -61 128 -172 224 -304 265 -61 19 -94 20 -613 20 l-549
0 0 -100 0 -99 538 -3 537 -3 53 -24 c71 -32 147 -115 167 -183 11 -39 15
-104 15 -270 l0 -218 -1032 2 -1033 3 -3 703 -2 702 -100 0 -100 0 0 -805z"/>
<path d="M21860 11970 l0 -100 653 -2 652 -3 6 -235 c4 -191 8 -244 23 -285
64 -177 210 -315 381 -360 50 -13 151 -15 647 -15 l588 0 0 100 0 99 -583 3
-582 3 -67 33 c-81 40 -148 110 -180 190 -21 54 -22 73 -26 365 l-4 307 -754
0 -754 0 0 -100z"/>
<path d="M17295 10860 l-100 -100 103 -103 102 -102 102 102 103 103 -100 100
c-55 55 -102 100 -105 100 -3 0 -50 -45 -105 -100z"/>
<path d="M16926 10239 c-117 -28 -256 -137 -315 -250 -60 -112 -61 -118 -61
-644 l0 -480 -180 -180 -180 -180 75 -75 75 -75 205 205 204 204 3 520 c4 598
1 581 93 672 89 89 89 89 595 89 l435 0 5 -260 c5 -241 7 -264 28 -317 50
-125 165 -239 290 -290 l57 -23 899 -3 c800 -2 906 -1 955 14 149 42 276 167
322 315 17 55 19 95 19 415 l0 354 -1020 0 -1020 0 0 -100 0 -100 200 0 c110
0 200 -4 200 -9 0 -5 -15 -40 -32 -77 l-33 -69 0 -195 0 -195 37 -78 38 -79
-253 4 c-233 3 -255 5 -299 25 -66 30 -132 95 -159 156 -23 51 -24 60 -27 385
l-3 332 -557 -1 c-306 -1 -574 -5 -596 -10z m2405 -220 c29 -13 66 -40 89 -66
64 -73 70 -104 70 -371 l0 -234 -167 4 c-190 4 -229 14 -298 83 -67 68 -80
110 -79 265 0 149 9 180 65 245 89 101 197 126 320 74z m917 -193 c2 -174 -1
-231 -13 -272 -22 -75 -70 -133 -140 -169 -57 -29 -62 -30 -227 -33 l-168 -4
0 236 c0 256 -7 310 -51 400 -16 33 -29 61 -29 63 0 2 141 2 313 1 l312 -3 3
-219z"/>
<path d="M21036 10239 c-109 -27 -244 -133 -298 -235 -45 -83 -58 -154 -58
-304 0 -150 13 -221 58 -304 43 -81 129 -161 219 -204 l78 -37 198 -3 197 -4
0 -146 0 -147 -177 -177 -178 -178 70 -70 c38 -38 74 -70 80 -70 6 0 101 91
213 203 l202 202 0 535 c0 584 -1 598 -58 704 -43 81 -129 161 -218 203 -71
34 -85 37 -183 39 -58 2 -123 -1 -145 -7z m229 -214 c53 -23 115 -84 141 -140
23 -48 24 -59 24 -294 l0 -243 -167 4 c-125 3 -177 8 -204 20 -56 24 -119 87
-145 143 -21 45 -24 65 -24 185 0 121 3 140 24 185 61 132 219 195 351 140z"/>
<path d="M21860 9913 c0 -358 4 -392 50 -483 61 -122 169 -216 297 -259 62
-21 73 -21 1148 -21 l1085 0 0 550 0 550 -105 0 -105 0 0 -450 0 -450 -967 2
-968 3 -57 28 c-68 33 -129 99 -154 165 -16 41 -19 90 -22 375 l-3 327 -100 0
-99 0 0 -337z"/>
<path d="M24988 10227 c-164 -57 -287 -197 -317 -362 -14 -76 -14 -269 0 -337
30 -142 128 -267 265 -334 l78 -39 200 -5 201 -5 3 -140 3 -139 -181 -181
-180 -180 75 -75 75 -75 205 205 205 204 2 191 3 190 1138 3 1137 2 0 100 0
100 -140 0 -140 0 0 219 c0 248 -7 298 -54 396 -61 128 -172 224 -304 265 -61
19 -94 20 -613 20 l-549 0 0 -100 0 -99 538 -3 537 -3 53 -24 c71 -32 147
-115 167 -183 11 -39 15 -104 15 -270 l0 -218 -892 2 -893 3 -5 270 -5 270
-37 78 c-52 108 -120 177 -226 230 -82 40 -89 42 -191 45 -90 2 -116 -1 -173
-21z m267 -206 c52 -24 112 -85 139 -141 20 -42 21 -62 21 -285 l0 -240 -170
0 c-165 0 -172 1 -221 27 -29 15 -68 46 -87 69 -53 61 -67 113 -67 249 0 136
14 188 67 249 78 92 207 121 318 72z"/>
<path d="M14897 9150 c-232 -58 -313 -352 -140 -511 66 -61 113 -79 209 -79
66 0 89 4 132 26 64 32 125 100 146 161 25 74 21 179 -10 240 -60 123 -210
194 -337 163z m148 -67 c101 -34 177 -155 161 -256 -32 -200 -270 -283 -410
-143 -129 128 -80 340 91 402 51 18 100 17 158 -3z"/>
<path d="M14850 8845 l0 -165 35 0 35 0 0 66 c0 65 0 65 26 62 29 -3 34 -9 65
-80 18 -44 23 -48 54 -48 19 0 35 2 35 4 0 2 -13 33 -29 68 l-29 64 23 22 c28
27 36 64 23 108 -14 53 -39 64 -145 64 l-93 0 0 -165z m174 83 c19 -30 -4 -53
-58 -56 l-46 -3 0 41 0 41 46 -3 c31 -2 51 -9 58 -20z"/>
<path d="M26227 8852 c-53 -53 -97 -102 -97 -107 0 -6 44 -54 98 -108 l97 -97
85 85 c46 47 89 85 95 85 6 0 48 -38 95 -85 l85 -85 87 87 88 88 88 -88 87
-87 103 103 102 102 -103 103 -102 102 -88 -87 -87 -88 -88 88 -87 87 -85 -85
c-47 -47 -89 -85 -95 -85 -5 0 -48 38 -95 85 l-85 85 -98 -98z"/>
<path d="M23055 8840 l-100 -100 103 -103 102 -102 102 102 103 103 -100 100
c-55 55 -102 100 -105 100 -3 0 -50 -45 -105 -100z"/>
</g>
</svg>

